<mxfile host="app.diagrams.net" modified="2021-04-26T12:39:21.852Z" agent="5.0 (Windows NT 10.0; Win64; x64) AppleWebKit/537.36 (KHTML, like Gecko) Chrome/90.0.4430.85 Safari/537.36 Edg/90.0.818.46" etag="G3PzJ1OoxOrcnqX66uhI" version="14.6.6" type="github">
  <diagram name="Page-1" id="e56a1550-8fbb-45ad-956c-1786394a9013">
    <mxGraphModel dx="1165" dy="645" grid="1" gridSize="10" guides="1" tooltips="1" connect="1" arrows="1" fold="1" page="1" pageScale="1" pageWidth="1100" pageHeight="850" background="#283618" math="0" shadow="0">
      <root>
        <mxCell id="0" />
        <mxCell id="1" parent="0" />
        <mxCell id="2e49270ec7c68f3f-63" value="" style="edgeStyle=entityRelationEdgeStyle;html=1;endArrow=ERzeroToMany;startArrow=ERzeroToOne;labelBackgroundColor=none;fontFamily=Verdana;fontSize=14;entryX=0;entryY=0.5;exitX=1;exitY=0.5;strokeColor=#DDA15E;fontColor=#FEFAE0;sketch=1;" parent="1" target="2e49270ec7c68f3f-42" edge="1">
          <mxGeometry width="100" height="100" relative="1" as="geometry">
            <mxPoint x="740" y="450" as="sourcePoint" />
            <mxPoint x="950" y="500" as="targetPoint" />
          </mxGeometry>
        </mxCell>
        <mxCell id="2e49270ec7c68f3f-78" value="" style="edgeStyle=entityRelationEdgeStyle;html=1;endArrow=ERzeroToMany;startArrow=ERzeroToOne;labelBackgroundColor=none;fontFamily=Verdana;fontSize=14;entryX=0;entryY=0.5;exitX=1;exitY=0.5;strokeColor=#DDA15E;fontColor=#FEFAE0;sketch=1;" parent="1" target="2e49270ec7c68f3f-65" edge="1">
          <mxGeometry width="100" height="100" relative="1" as="geometry">
            <mxPoint x="740" y="478" as="sourcePoint" />
            <mxPoint x="900.3529411764707" y="325.41176470588243" as="targetPoint" />
          </mxGeometry>
        </mxCell>
        <mxCell id="2e49270ec7c68f3f-79" value="" style="edgeStyle=entityRelationEdgeStyle;html=1;endArrow=ERzeroToMany;startArrow=ERzeroToOne;labelBackgroundColor=none;fontFamily=Verdana;fontSize=14;entryX=0;entryY=0.5;exitX=1;exitY=0.5;strokeColor=#DDA15E;fontColor=#FEFAE0;sketch=1;" parent="1" target="2e49270ec7c68f3f-74" edge="1">
          <mxGeometry width="100" height="100" relative="1" as="geometry">
            <mxPoint x="740" y="530" as="sourcePoint" />
            <mxPoint x="910.3529411764707" y="335.41176470588243" as="targetPoint" />
          </mxGeometry>
        </mxCell>
        <mxCell id="2e49270ec7c68f3f-80" value="URLPermission" style="swimlane;html=1;fontStyle=0;childLayout=stackLayout;horizontal=1;startSize=26;horizontalStack=0;resizeParent=1;resizeLast=0;collapsible=1;marginBottom=0;swimlaneFillColor=#ffffff;align=center;shadow=1;comic=0;labelBackgroundColor=none;strokeWidth=1;fontFamily=Verdana;fontSize=14;glass=0;fillColor=#BC6C25;strokeColor=#DDA15E;fontColor=#FEFAE0;sketch=1;rounded=1;" parent="1" vertex="1">
          <mxGeometry x="30" y="358" width="160" height="170" as="geometry" />
        </mxCell>
        <mxCell id="2e49270ec7c68f3f-81" value="_id" style="shape=partialRectangle;top=0;left=0;right=0;bottom=1;html=1;align=left;verticalAlign=middle;fillColor=none;spacingLeft=34;spacingRight=4;whiteSpace=wrap;overflow=hidden;rotatable=0;points=[[0,0.5],[1,0.5]];portConstraint=eastwest;dropTarget=0;fontStyle=5;shadow=1;strokeColor=#DDA15E;sketch=1;rounded=1;" parent="2e49270ec7c68f3f-80" vertex="1">
          <mxGeometry y="26" width="160" height="30" as="geometry" />
        </mxCell>
        <mxCell id="2e49270ec7c68f3f-82" value="&lt;font color=&quot;#000000&quot;&gt;&lt;b&gt;PK&lt;/b&gt;&lt;/font&gt;" style="shape=partialRectangle;top=0;left=0;bottom=0;html=1;fillColor=none;align=left;verticalAlign=middle;spacingLeft=4;spacingRight=4;whiteSpace=wrap;overflow=hidden;rotatable=0;points=[];portConstraint=eastwest;part=1;strokeColor=#DDA15E;fontColor=#FEFAE0;sketch=1;rounded=1;" parent="2e49270ec7c68f3f-81" vertex="1" connectable="0">
          <mxGeometry width="30" height="30" as="geometry" />
        </mxCell>
        <mxCell id="2e49270ec7c68f3f-83" value="name" style="shape=partialRectangle;top=0;left=0;right=0;bottom=0;html=1;align=left;verticalAlign=top;fillColor=none;spacingLeft=34;spacingRight=4;whiteSpace=wrap;overflow=hidden;rotatable=0;points=[[0,0.5],[1,0.5]];portConstraint=eastwest;dropTarget=0;shadow=1;strokeColor=#DDA15E;sketch=1;rounded=1;" parent="2e49270ec7c68f3f-80" vertex="1">
          <mxGeometry y="56" width="160" height="26" as="geometry" />
        </mxCell>
        <mxCell id="2e49270ec7c68f3f-84" value="" style="shape=partialRectangle;top=0;left=0;bottom=0;html=1;fillColor=none;align=left;verticalAlign=top;spacingLeft=4;spacingRight=4;whiteSpace=wrap;overflow=hidden;rotatable=0;points=[];portConstraint=eastwest;part=1;strokeColor=#DDA15E;fontColor=#FEFAE0;sketch=1;rounded=1;" parent="2e49270ec7c68f3f-83" vertex="1" connectable="0">
          <mxGeometry width="30" height="26" as="geometry" />
        </mxCell>
        <mxCell id="2e49270ec7c68f3f-85" value="url" style="shape=partialRectangle;top=0;left=0;right=0;bottom=0;html=1;align=left;verticalAlign=top;fillColor=none;spacingLeft=34;spacingRight=4;whiteSpace=wrap;overflow=hidden;rotatable=0;points=[[0,0.5],[1,0.5]];portConstraint=eastwest;dropTarget=0;shadow=1;strokeColor=#DDA15E;sketch=1;rounded=1;" parent="2e49270ec7c68f3f-80" vertex="1">
          <mxGeometry y="82" width="160" height="26" as="geometry" />
        </mxCell>
        <mxCell id="2e49270ec7c68f3f-86" value="" style="shape=partialRectangle;top=0;left=0;bottom=0;html=1;fillColor=none;align=left;verticalAlign=top;spacingLeft=4;spacingRight=4;whiteSpace=wrap;overflow=hidden;rotatable=0;points=[];portConstraint=eastwest;part=1;strokeColor=#DDA15E;fontColor=#FEFAE0;sketch=1;rounded=1;" parent="2e49270ec7c68f3f-85" vertex="1" connectable="0">
          <mxGeometry width="30" height="26" as="geometry" />
        </mxCell>
        <mxCell id="2e49270ec7c68f3f-87" value="codename" style="shape=partialRectangle;top=0;left=0;right=0;bottom=0;html=1;align=left;verticalAlign=top;fillColor=none;spacingLeft=34;spacingRight=4;whiteSpace=wrap;overflow=hidden;rotatable=0;points=[[0,0.5],[1,0.5]];portConstraint=eastwest;dropTarget=0;shadow=1;strokeColor=#DDA15E;sketch=1;rounded=1;" parent="2e49270ec7c68f3f-80" vertex="1">
          <mxGeometry y="108" width="160" height="26" as="geometry" />
        </mxCell>
        <mxCell id="2e49270ec7c68f3f-88" value="" style="shape=partialRectangle;top=0;left=0;bottom=0;html=1;fillColor=none;align=left;verticalAlign=top;spacingLeft=4;spacingRight=4;whiteSpace=wrap;overflow=hidden;rotatable=0;points=[];portConstraint=eastwest;part=1;strokeColor=#DDA15E;fontColor=#FEFAE0;sketch=1;rounded=1;" parent="2e49270ec7c68f3f-87" vertex="1" connectable="0">
          <mxGeometry width="30" height="26" as="geometry" />
        </mxCell>
        <mxCell id="QTOvt28qvxfar2RnhYl3-1" value="create_time" style="shape=partialRectangle;top=0;left=0;right=0;bottom=0;html=1;align=left;verticalAlign=top;fillColor=none;spacingLeft=34;spacingRight=4;whiteSpace=wrap;overflow=hidden;rotatable=0;points=[[0,0.5],[1,0.5]];portConstraint=eastwest;dropTarget=0;shadow=1;strokeColor=#DDA15E;sketch=1;rounded=1;" vertex="1" parent="2e49270ec7c68f3f-80">
          <mxGeometry y="134" width="160" height="26" as="geometry" />
        </mxCell>
        <mxCell id="QTOvt28qvxfar2RnhYl3-2" value="" style="shape=partialRectangle;top=0;left=0;bottom=0;html=1;fillColor=none;align=left;verticalAlign=top;spacingLeft=4;spacingRight=4;whiteSpace=wrap;overflow=hidden;rotatable=0;points=[];portConstraint=eastwest;part=1;strokeColor=#DDA15E;fontColor=#FEFAE0;sketch=1;rounded=1;" vertex="1" connectable="0" parent="QTOvt28qvxfar2RnhYl3-1">
          <mxGeometry width="30" height="26" as="geometry" />
        </mxCell>
        <mxCell id="2e49270ec7c68f3f-89" value="" style="shape=partialRectangle;top=0;left=0;right=0;bottom=0;html=1;align=left;verticalAlign=top;fillColor=none;spacingLeft=34;spacingRight=4;whiteSpace=wrap;overflow=hidden;rotatable=0;points=[[0,0.5],[1,0.5]];portConstraint=eastwest;dropTarget=0;shadow=1;strokeColor=#DDA15E;fontColor=#FEFAE0;sketch=1;rounded=1;" parent="2e49270ec7c68f3f-80" vertex="1">
          <mxGeometry y="160" width="160" height="10" as="geometry" />
        </mxCell>
        <mxCell id="2e49270ec7c68f3f-90" value="" style="shape=partialRectangle;top=0;left=0;bottom=0;html=1;fillColor=none;align=left;verticalAlign=top;spacingLeft=4;spacingRight=4;whiteSpace=wrap;overflow=hidden;rotatable=0;points=[];portConstraint=eastwest;part=1;strokeColor=#DDA15E;fontColor=#FEFAE0;sketch=1;rounded=1;" parent="2e49270ec7c68f3f-89" vertex="1" connectable="0">
          <mxGeometry width="30" height="10" as="geometry" />
        </mxCell>
        <mxCell id="QTOvt28qvxfar2RnhYl3-3" value="ObjectPermission" style="swimlane;html=1;fontStyle=0;childLayout=stackLayout;horizontal=1;startSize=26;horizontalStack=0;resizeParent=1;resizeLast=0;collapsible=1;marginBottom=0;swimlaneFillColor=#ffffff;align=center;shadow=1;comic=0;labelBackgroundColor=none;strokeWidth=1;fontFamily=Verdana;fontSize=14;glass=0;fillColor=#BC6C25;strokeColor=#DDA15E;fontColor=#FEFAE0;sketch=1;rounded=1;" vertex="1" parent="1">
          <mxGeometry x="30" y="650" width="160" height="164" as="geometry" />
        </mxCell>
        <mxCell id="QTOvt28qvxfar2RnhYl3-18" value="&lt;font color=&quot;#000000&quot;&gt;permission&lt;/font&gt;" style="shape=partialRectangle;top=0;left=0;right=0;bottom=0;html=1;align=left;verticalAlign=middle;fillColor=none;spacingLeft=60;spacingRight=4;whiteSpace=wrap;overflow=hidden;rotatable=0;points=[[0,0.5],[1,0.5]];portConstraint=eastwest;dropTarget=0;fontStyle=5;strokeColor=#DDA15E;fontColor=#FEFAE0;sketch=1;rounded=1;" vertex="1" parent="QTOvt28qvxfar2RnhYl3-3">
          <mxGeometry y="26" width="160" height="30" as="geometry" />
        </mxCell>
        <mxCell id="QTOvt28qvxfar2RnhYl3-19" value="&lt;font color=&quot;#000000&quot;&gt;PK,FK&lt;/font&gt;" style="shape=partialRectangle;fontStyle=1;top=0;left=0;bottom=0;html=1;fillColor=none;align=left;verticalAlign=middle;spacingLeft=4;spacingRight=4;whiteSpace=wrap;overflow=hidden;rotatable=0;points=[];portConstraint=eastwest;part=1;strokeColor=#DDA15E;fontColor=#FEFAE0;sketch=1;rounded=1;" vertex="1" connectable="0" parent="QTOvt28qvxfar2RnhYl3-18">
          <mxGeometry width="56" height="30" as="geometry" />
        </mxCell>
        <mxCell id="QTOvt28qvxfar2RnhYl3-20" value="&lt;font color=&quot;#000000&quot;&gt;object_id&lt;/font&gt;" style="shape=partialRectangle;top=0;left=0;right=0;bottom=1;html=1;align=left;verticalAlign=middle;fillColor=none;spacingLeft=60;spacingRight=4;whiteSpace=wrap;overflow=hidden;rotatable=0;points=[[0,0.5],[1,0.5]];portConstraint=eastwest;dropTarget=0;fontStyle=5;strokeColor=#DDA15E;fontColor=#FEFAE0;sketch=1;rounded=1;" vertex="1" parent="QTOvt28qvxfar2RnhYl3-3">
          <mxGeometry y="56" width="160" height="30" as="geometry" />
        </mxCell>
        <mxCell id="QTOvt28qvxfar2RnhYl3-21" value="&lt;font color=&quot;#000000&quot;&gt;PK&lt;/font&gt;" style="shape=partialRectangle;fontStyle=1;top=0;left=0;bottom=0;html=1;fillColor=none;align=left;verticalAlign=middle;spacingLeft=4;spacingRight=4;whiteSpace=wrap;overflow=hidden;rotatable=0;points=[];portConstraint=eastwest;part=1;strokeColor=#DDA15E;fontColor=#FEFAE0;sketch=1;rounded=1;" vertex="1" connectable="0" parent="QTOvt28qvxfar2RnhYl3-20">
          <mxGeometry width="56" height="30" as="geometry" />
        </mxCell>
        <mxCell id="QTOvt28qvxfar2RnhYl3-26" value="&lt;font color=&quot;#000000&quot;&gt;_id&lt;/font&gt;" style="shape=partialRectangle;top=0;left=0;right=0;bottom=0;html=1;align=left;verticalAlign=top;fillColor=none;spacingLeft=60;spacingRight=4;whiteSpace=wrap;overflow=hidden;rotatable=0;points=[[0,0.5],[1,0.5]];portConstraint=eastwest;dropTarget=0;strokeColor=#DDA15E;fontColor=#FEFAE0;sketch=1;rounded=1;" vertex="1" parent="QTOvt28qvxfar2RnhYl3-3">
          <mxGeometry y="86" width="160" height="26" as="geometry" />
        </mxCell>
        <mxCell id="QTOvt28qvxfar2RnhYl3-27" value="" style="shape=partialRectangle;top=0;left=0;bottom=0;html=1;fillColor=none;align=left;verticalAlign=top;spacingLeft=4;spacingRight=4;whiteSpace=wrap;overflow=hidden;rotatable=0;points=[];portConstraint=eastwest;part=1;strokeColor=#DDA15E;fontColor=#FEFAE0;sketch=1;rounded=1;" vertex="1" connectable="0" parent="QTOvt28qvxfar2RnhYl3-26">
          <mxGeometry width="56" height="26" as="geometry" />
        </mxCell>
        <mxCell id="QTOvt28qvxfar2RnhYl3-22" value="&lt;font color=&quot;#000000&quot;&gt;name&lt;/font&gt;" style="shape=partialRectangle;top=0;left=0;right=0;bottom=0;html=1;align=left;verticalAlign=top;fillColor=none;spacingLeft=60;spacingRight=4;whiteSpace=wrap;overflow=hidden;rotatable=0;points=[[0,0.5],[1,0.5]];portConstraint=eastwest;dropTarget=0;strokeColor=#DDA15E;fontColor=#FEFAE0;sketch=1;rounded=1;" vertex="1" parent="QTOvt28qvxfar2RnhYl3-3">
          <mxGeometry y="112" width="160" height="26" as="geometry" />
        </mxCell>
        <mxCell id="QTOvt28qvxfar2RnhYl3-23" value="" style="shape=partialRectangle;top=0;left=0;bottom=0;html=1;fillColor=none;align=left;verticalAlign=top;spacingLeft=4;spacingRight=4;whiteSpace=wrap;overflow=hidden;rotatable=0;points=[];portConstraint=eastwest;part=1;strokeColor=#DDA15E;fontColor=#FEFAE0;sketch=1;rounded=1;" vertex="1" connectable="0" parent="QTOvt28qvxfar2RnhYl3-22">
          <mxGeometry width="56" height="26" as="geometry" />
        </mxCell>
        <mxCell id="QTOvt28qvxfar2RnhYl3-24" value="&lt;font color=&quot;#000000&quot;&gt;create_time&lt;/font&gt;" style="shape=partialRectangle;top=0;left=0;right=0;bottom=0;html=1;align=left;verticalAlign=top;fillColor=none;spacingLeft=60;spacingRight=4;whiteSpace=wrap;overflow=hidden;rotatable=0;points=[[0,0.5],[1,0.5]];portConstraint=eastwest;dropTarget=0;strokeColor=#DDA15E;fontColor=#FEFAE0;sketch=1;rounded=1;" vertex="1" parent="QTOvt28qvxfar2RnhYl3-3">
          <mxGeometry y="138" width="160" height="26" as="geometry" />
        </mxCell>
        <mxCell id="QTOvt28qvxfar2RnhYl3-25" value="" style="shape=partialRectangle;top=0;left=0;bottom=0;html=1;fillColor=none;align=left;verticalAlign=top;spacingLeft=4;spacingRight=4;whiteSpace=wrap;overflow=hidden;rotatable=0;points=[];portConstraint=eastwest;part=1;strokeColor=#DDA15E;fontColor=#FEFAE0;sketch=1;rounded=1;" vertex="1" connectable="0" parent="QTOvt28qvxfar2RnhYl3-24">
          <mxGeometry width="56" height="26" as="geometry" />
        </mxCell>
        <mxCell id="QTOvt28qvxfar2RnhYl3-30" value="Role" style="swimlane;html=1;fontStyle=0;childLayout=stackLayout;horizontal=1;startSize=26;fillColor=#BC6C25;horizontalStack=0;resizeParent=1;resizeLast=0;collapsible=1;marginBottom=0;swimlaneFillColor=#ffffff;align=center;shadow=0;comic=0;labelBackgroundColor=none;strokeWidth=1;fontFamily=Verdana;fontSize=14;strokeColor=#DDA15E;fontColor=#FEFAE0;sketch=1;rounded=1;" vertex="1" parent="1">
          <mxGeometry x="400" y="100" width="160" height="170" as="geometry" />
        </mxCell>
        <mxCell id="QTOvt28qvxfar2RnhYl3-31" value="&lt;font color=&quot;#000000&quot;&gt;title&lt;/font&gt;" style="shape=partialRectangle;top=0;left=0;right=0;bottom=1;html=1;align=left;verticalAlign=middle;fillColor=none;spacingLeft=34;spacingRight=4;whiteSpace=wrap;overflow=hidden;rotatable=0;points=[[0,0.5],[1,0.5]];portConstraint=eastwest;dropTarget=0;fontStyle=5;strokeColor=#DDA15E;fontColor=#FEFAE0;sketch=1;rounded=1;" vertex="1" parent="QTOvt28qvxfar2RnhYl3-30">
          <mxGeometry y="26" width="160" height="30" as="geometry" />
        </mxCell>
        <mxCell id="QTOvt28qvxfar2RnhYl3-32" value="&lt;font color=&quot;#000000&quot;&gt;&lt;b&gt;PK&lt;/b&gt;&lt;/font&gt;" style="shape=partialRectangle;top=0;left=0;bottom=0;html=1;fillColor=none;align=left;verticalAlign=middle;spacingLeft=4;spacingRight=4;whiteSpace=wrap;overflow=hidden;rotatable=0;points=[];portConstraint=eastwest;part=1;strokeColor=#DDA15E;fontColor=#FEFAE0;sketch=1;rounded=1;" vertex="1" connectable="0" parent="QTOvt28qvxfar2RnhYl3-31">
          <mxGeometry width="30" height="30" as="geometry" />
        </mxCell>
        <mxCell id="QTOvt28qvxfar2RnhYl3-33" value="&lt;font color=&quot;#000000&quot;&gt;descirption&lt;/font&gt;" style="shape=partialRectangle;top=0;left=0;right=0;bottom=0;html=1;align=left;verticalAlign=top;fillColor=none;spacingLeft=34;spacingRight=4;whiteSpace=wrap;overflow=hidden;rotatable=0;points=[[0,0.5],[1,0.5]];portConstraint=eastwest;dropTarget=0;strokeColor=#DDA15E;fontColor=#FEFAE0;sketch=1;rounded=1;" vertex="1" parent="QTOvt28qvxfar2RnhYl3-30">
          <mxGeometry y="56" width="160" height="26" as="geometry" />
        </mxCell>
        <mxCell id="QTOvt28qvxfar2RnhYl3-34" value="" style="shape=partialRectangle;top=0;left=0;bottom=0;html=1;fillColor=none;align=left;verticalAlign=top;spacingLeft=4;spacingRight=4;whiteSpace=wrap;overflow=hidden;rotatable=0;points=[];portConstraint=eastwest;part=1;strokeColor=#DDA15E;fontColor=#FEFAE0;sketch=1;rounded=1;" vertex="1" connectable="0" parent="QTOvt28qvxfar2RnhYl3-33">
          <mxGeometry width="30" height="26" as="geometry" />
        </mxCell>
        <mxCell id="QTOvt28qvxfar2RnhYl3-35" value="&lt;font color=&quot;#000000&quot;&gt;create_time&lt;/font&gt;" style="shape=partialRectangle;top=0;left=0;right=0;bottom=0;html=1;align=left;verticalAlign=top;fillColor=none;spacingLeft=34;spacingRight=4;whiteSpace=wrap;overflow=hidden;rotatable=0;points=[[0,0.5],[1,0.5]];portConstraint=eastwest;dropTarget=0;strokeColor=#DDA15E;fontColor=#FEFAE0;sketch=1;rounded=1;" vertex="1" parent="QTOvt28qvxfar2RnhYl3-30">
          <mxGeometry y="82" width="160" height="26" as="geometry" />
        </mxCell>
        <mxCell id="QTOvt28qvxfar2RnhYl3-36" value="" style="shape=partialRectangle;top=0;left=0;bottom=0;html=1;fillColor=none;align=left;verticalAlign=top;spacingLeft=4;spacingRight=4;whiteSpace=wrap;overflow=hidden;rotatable=0;points=[];portConstraint=eastwest;part=1;strokeColor=#DDA15E;fontColor=#FEFAE0;sketch=1;rounded=1;" vertex="1" connectable="0" parent="QTOvt28qvxfar2RnhYl3-35">
          <mxGeometry width="30" height="26" as="geometry" />
        </mxCell>
        <mxCell id="QTOvt28qvxfar2RnhYl3-37" value="&lt;font color=&quot;#000000&quot;&gt;url_permissions&lt;/font&gt;" style="shape=partialRectangle;top=0;left=0;right=0;bottom=0;html=1;align=left;verticalAlign=top;fillColor=none;spacingLeft=34;spacingRight=4;whiteSpace=wrap;overflow=hidden;rotatable=0;points=[[0,0.5],[1,0.5]];portConstraint=eastwest;dropTarget=0;strokeColor=#DDA15E;fontColor=#FEFAE0;sketch=1;rounded=1;" vertex="1" parent="QTOvt28qvxfar2RnhYl3-30">
          <mxGeometry y="108" width="160" height="26" as="geometry" />
        </mxCell>
        <mxCell id="QTOvt28qvxfar2RnhYl3-38" value="" style="shape=partialRectangle;top=0;left=0;bottom=0;html=1;fillColor=none;align=left;verticalAlign=top;spacingLeft=4;spacingRight=4;whiteSpace=wrap;overflow=hidden;rotatable=0;points=[];portConstraint=eastwest;part=1;strokeColor=#DDA15E;fontColor=#FEFAE0;sketch=1;rounded=1;" vertex="1" connectable="0" parent="QTOvt28qvxfar2RnhYl3-37">
          <mxGeometry width="30" height="26" as="geometry" />
        </mxCell>
        <mxCell id="QTOvt28qvxfar2RnhYl3-39" value="&lt;font color=&quot;#000000&quot;&gt;obj_permissions&lt;/font&gt;" style="shape=partialRectangle;top=0;left=0;right=0;bottom=0;html=1;align=left;verticalAlign=top;fillColor=none;spacingLeft=34;spacingRight=4;whiteSpace=wrap;overflow=hidden;rotatable=0;points=[[0,0.5],[1,0.5]];portConstraint=eastwest;dropTarget=0;strokeColor=#DDA15E;fontColor=#FEFAE0;sketch=1;rounded=1;" vertex="1" parent="QTOvt28qvxfar2RnhYl3-30">
          <mxGeometry y="134" width="160" height="26" as="geometry" />
        </mxCell>
        <mxCell id="QTOvt28qvxfar2RnhYl3-40" value="" style="shape=partialRectangle;top=0;left=0;bottom=0;html=1;fillColor=none;align=left;verticalAlign=top;spacingLeft=4;spacingRight=4;whiteSpace=wrap;overflow=hidden;rotatable=0;points=[];portConstraint=eastwest;part=1;strokeColor=#DDA15E;fontColor=#FEFAE0;sketch=1;rounded=1;" vertex="1" connectable="0" parent="QTOvt28qvxfar2RnhYl3-39">
          <mxGeometry width="30" height="26" as="geometry" />
        </mxCell>
        <mxCell id="QTOvt28qvxfar2RnhYl3-41" value="" style="shape=partialRectangle;top=0;left=0;right=0;bottom=0;html=1;align=left;verticalAlign=top;fillColor=none;spacingLeft=34;spacingRight=4;whiteSpace=wrap;overflow=hidden;rotatable=0;points=[[0,0.5],[1,0.5]];portConstraint=eastwest;dropTarget=0;strokeColor=#DDA15E;fontColor=#FEFAE0;sketch=1;rounded=1;" vertex="1" parent="QTOvt28qvxfar2RnhYl3-30">
          <mxGeometry y="160" width="160" height="10" as="geometry" />
        </mxCell>
        <mxCell id="QTOvt28qvxfar2RnhYl3-42" value="" style="shape=partialRectangle;top=0;left=0;bottom=0;html=1;fillColor=none;align=left;verticalAlign=top;spacingLeft=4;spacingRight=4;whiteSpace=wrap;overflow=hidden;rotatable=0;points=[];portConstraint=eastwest;part=1;strokeColor=#DDA15E;fontColor=#FEFAE0;sketch=1;rounded=1;" vertex="1" connectable="0" parent="QTOvt28qvxfar2RnhYl3-41">
          <mxGeometry width="30" height="10" as="geometry" />
        </mxCell>
        <mxCell id="QTOvt28qvxfar2RnhYl3-43" value="" style="edgeStyle=entityRelationEdgeStyle;fontSize=12;html=1;endArrow=ERzeroToMany;startArrow=ERzeroToMany;fontColor=#000000;strokeColor=#DDA15E;fillColor=#BC6C25;strokeWidth=2;shadow=1;sketch=1;startFill=1;endFill=1;rounded=1;" edge="1" parent="1" source="2e49270ec7c68f3f-80" target="QTOvt28qvxfar2RnhYl3-37">
          <mxGeometry width="100" height="100" relative="1" as="geometry">
            <mxPoint x="170" y="276" as="sourcePoint" />
            <mxPoint x="270" y="176" as="targetPoint" />
          </mxGeometry>
        </mxCell>
        <mxCell id="QTOvt28qvxfar2RnhYl3-44" value="" style="edgeStyle=entityRelationEdgeStyle;fontSize=12;html=1;endArrow=ERzeroToMany;startArrow=ERzeroToMany;shadow=1;fontColor=#000000;strokeColor=#DDA15E;strokeWidth=2;fillColor=#BC6C25;startFill=1;endFill=1;sketch=1;" edge="1" parent="1" source="QTOvt28qvxfar2RnhYl3-3" target="QTOvt28qvxfar2RnhYl3-39">
          <mxGeometry width="100" height="100" relative="1" as="geometry">
            <mxPoint x="180" y="570" as="sourcePoint" />
            <mxPoint x="280" y="470" as="targetPoint" />
          </mxGeometry>
        </mxCell>
        <mxCell id="QTOvt28qvxfar2RnhYl3-52" value="UserGroup" style="swimlane;html=1;fontStyle=0;childLayout=stackLayout;horizontal=1;startSize=26;fillColor=#BC6C25;horizontalStack=0;resizeParent=1;resizeLast=0;collapsible=1;marginBottom=0;swimlaneFillColor=#ffffff;align=center;shadow=0;comic=0;labelBackgroundColor=none;strokeWidth=1;fontFamily=Verdana;fontSize=14;strokeColor=#DDA15E;fontColor=#FEFAE0;sketch=1;rounded=1;" vertex="1" parent="1">
          <mxGeometry x="400" y="880" width="160" height="196" as="geometry" />
        </mxCell>
        <mxCell id="QTOvt28qvxfar2RnhYl3-53" value="&lt;font color=&quot;#000000&quot;&gt;ug_id&lt;/font&gt;" style="shape=partialRectangle;top=0;left=0;right=0;bottom=1;html=1;align=left;verticalAlign=middle;fillColor=none;spacingLeft=34;spacingRight=4;whiteSpace=wrap;overflow=hidden;rotatable=0;points=[[0,0.5],[1,0.5]];portConstraint=eastwest;dropTarget=0;fontStyle=5;strokeColor=#DDA15E;fontColor=#FEFAE0;sketch=1;rounded=1;" vertex="1" parent="QTOvt28qvxfar2RnhYl3-52">
          <mxGeometry y="26" width="160" height="30" as="geometry" />
        </mxCell>
        <mxCell id="QTOvt28qvxfar2RnhYl3-54" value="&lt;font color=&quot;#000000&quot;&gt;&lt;b&gt;PK&lt;/b&gt;&lt;/font&gt;" style="shape=partialRectangle;top=0;left=0;bottom=0;html=1;fillColor=none;align=left;verticalAlign=middle;spacingLeft=4;spacingRight=4;whiteSpace=wrap;overflow=hidden;rotatable=0;points=[];portConstraint=eastwest;part=1;strokeColor=#DDA15E;fontColor=#FEFAE0;sketch=1;rounded=1;" vertex="1" connectable="0" parent="QTOvt28qvxfar2RnhYl3-53">
          <mxGeometry width="30" height="30" as="geometry" />
        </mxCell>
        <mxCell id="QTOvt28qvxfar2RnhYl3-55" value="&lt;font color=&quot;#000000&quot;&gt;name&lt;/font&gt;" style="shape=partialRectangle;top=0;left=0;right=0;bottom=0;html=1;align=left;verticalAlign=top;fillColor=none;spacingLeft=34;spacingRight=4;whiteSpace=wrap;overflow=hidden;rotatable=0;points=[[0,0.5],[1,0.5]];portConstraint=eastwest;dropTarget=0;strokeColor=#DDA15E;fontColor=#FEFAE0;sketch=1;rounded=1;" vertex="1" parent="QTOvt28qvxfar2RnhYl3-52">
          <mxGeometry y="56" width="160" height="26" as="geometry" />
        </mxCell>
        <mxCell id="QTOvt28qvxfar2RnhYl3-56" value="" style="shape=partialRectangle;top=0;left=0;bottom=0;html=1;fillColor=none;align=left;verticalAlign=top;spacingLeft=4;spacingRight=4;whiteSpace=wrap;overflow=hidden;rotatable=0;points=[];portConstraint=eastwest;part=1;strokeColor=#DDA15E;fontColor=#FEFAE0;sketch=1;rounded=1;" vertex="1" connectable="0" parent="QTOvt28qvxfar2RnhYl3-55">
          <mxGeometry width="30" height="26" as="geometry" />
        </mxCell>
        <mxCell id="QTOvt28qvxfar2RnhYl3-57" value="&lt;font color=&quot;#000000&quot;&gt;create_time&lt;/font&gt;" style="shape=partialRectangle;top=0;left=0;right=0;bottom=0;html=1;align=left;verticalAlign=top;fillColor=none;spacingLeft=34;spacingRight=4;whiteSpace=wrap;overflow=hidden;rotatable=0;points=[[0,0.5],[1,0.5]];portConstraint=eastwest;dropTarget=0;strokeColor=#DDA15E;fontColor=#FEFAE0;sketch=1;rounded=1;" vertex="1" parent="QTOvt28qvxfar2RnhYl3-52">
          <mxGeometry y="82" width="160" height="26" as="geometry" />
        </mxCell>
        <mxCell id="QTOvt28qvxfar2RnhYl3-58" value="" style="shape=partialRectangle;top=0;left=0;bottom=0;html=1;fillColor=none;align=left;verticalAlign=top;spacingLeft=4;spacingRight=4;whiteSpace=wrap;overflow=hidden;rotatable=0;points=[];portConstraint=eastwest;part=1;strokeColor=#DDA15E;fontColor=#FEFAE0;sketch=1;rounded=1;" vertex="1" connectable="0" parent="QTOvt28qvxfar2RnhYl3-57">
          <mxGeometry width="30" height="26" as="geometry" />
        </mxCell>
        <mxCell id="QTOvt28qvxfar2RnhYl3-65" value="&lt;font color=&quot;#000000&quot;&gt;roles&lt;/font&gt;" style="shape=partialRectangle;top=0;left=0;right=0;bottom=0;html=1;align=left;verticalAlign=top;fillColor=none;spacingLeft=34;spacingRight=4;whiteSpace=wrap;overflow=hidden;rotatable=0;points=[[0,0.5],[1,0.5]];portConstraint=eastwest;dropTarget=0;strokeColor=#DDA15E;fontColor=#FEFAE0;sketch=1;rounded=1;" vertex="1" parent="QTOvt28qvxfar2RnhYl3-52">
          <mxGeometry y="108" width="160" height="26" as="geometry" />
        </mxCell>
        <mxCell id="QTOvt28qvxfar2RnhYl3-66" value="" style="shape=partialRectangle;top=0;left=0;bottom=0;html=1;fillColor=none;align=left;verticalAlign=top;spacingLeft=4;spacingRight=4;whiteSpace=wrap;overflow=hidden;rotatable=0;points=[];portConstraint=eastwest;part=1;strokeColor=#DDA15E;fontColor=#FEFAE0;sketch=1;rounded=1;" vertex="1" connectable="0" parent="QTOvt28qvxfar2RnhYl3-65">
          <mxGeometry width="30" height="26" as="geometry" />
        </mxCell>
        <mxCell id="QTOvt28qvxfar2RnhYl3-59" value="&lt;font color=&quot;#000000&quot;&gt;url_permissions&lt;/font&gt;" style="shape=partialRectangle;top=0;left=0;right=0;bottom=0;html=1;align=left;verticalAlign=top;fillColor=none;spacingLeft=34;spacingRight=4;whiteSpace=wrap;overflow=hidden;rotatable=0;points=[[0,0.5],[1,0.5]];portConstraint=eastwest;dropTarget=0;strokeColor=#DDA15E;fontColor=#FEFAE0;sketch=1;rounded=1;" vertex="1" parent="QTOvt28qvxfar2RnhYl3-52">
          <mxGeometry y="134" width="160" height="26" as="geometry" />
        </mxCell>
        <mxCell id="QTOvt28qvxfar2RnhYl3-60" value="" style="shape=partialRectangle;top=0;left=0;bottom=0;html=1;fillColor=none;align=left;verticalAlign=top;spacingLeft=4;spacingRight=4;whiteSpace=wrap;overflow=hidden;rotatable=0;points=[];portConstraint=eastwest;part=1;strokeColor=#DDA15E;fontColor=#FEFAE0;sketch=1;rounded=1;" vertex="1" connectable="0" parent="QTOvt28qvxfar2RnhYl3-59">
          <mxGeometry width="30" height="26" as="geometry" />
        </mxCell>
        <mxCell id="QTOvt28qvxfar2RnhYl3-61" value="&lt;font color=&quot;#000000&quot;&gt;obj_permissions&lt;/font&gt;" style="shape=partialRectangle;top=0;left=0;right=0;bottom=0;html=1;align=left;verticalAlign=top;fillColor=none;spacingLeft=34;spacingRight=4;whiteSpace=wrap;overflow=hidden;rotatable=0;points=[[0,0.5],[1,0.5]];portConstraint=eastwest;dropTarget=0;strokeColor=#DDA15E;fontColor=#FEFAE0;sketch=1;rounded=1;" vertex="1" parent="QTOvt28qvxfar2RnhYl3-52">
          <mxGeometry y="160" width="160" height="26" as="geometry" />
        </mxCell>
        <mxCell id="QTOvt28qvxfar2RnhYl3-62" value="" style="shape=partialRectangle;top=0;left=0;bottom=0;html=1;fillColor=none;align=left;verticalAlign=top;spacingLeft=4;spacingRight=4;whiteSpace=wrap;overflow=hidden;rotatable=0;points=[];portConstraint=eastwest;part=1;strokeColor=#DDA15E;fontColor=#FEFAE0;sketch=1;rounded=1;" vertex="1" connectable="0" parent="QTOvt28qvxfar2RnhYl3-61">
          <mxGeometry width="30" height="26" as="geometry" />
        </mxCell>
        <mxCell id="QTOvt28qvxfar2RnhYl3-63" value="" style="shape=partialRectangle;top=0;left=0;right=0;bottom=0;html=1;align=left;verticalAlign=top;fillColor=none;spacingLeft=34;spacingRight=4;whiteSpace=wrap;overflow=hidden;rotatable=0;points=[[0,0.5],[1,0.5]];portConstraint=eastwest;dropTarget=0;strokeColor=#DDA15E;fontColor=#FEFAE0;sketch=1;rounded=1;" vertex="1" parent="QTOvt28qvxfar2RnhYl3-52">
          <mxGeometry y="186" width="160" height="10" as="geometry" />
        </mxCell>
        <mxCell id="QTOvt28qvxfar2RnhYl3-64" value="" style="shape=partialRectangle;top=0;left=0;bottom=0;html=1;fillColor=none;align=left;verticalAlign=top;spacingLeft=4;spacingRight=4;whiteSpace=wrap;overflow=hidden;rotatable=0;points=[];portConstraint=eastwest;part=1;strokeColor=#DDA15E;fontColor=#FEFAE0;sketch=1;rounded=1;" vertex="1" connectable="0" parent="QTOvt28qvxfar2RnhYl3-63">
          <mxGeometry width="30" height="10" as="geometry" />
        </mxCell>
        <mxCell id="QTOvt28qvxfar2RnhYl3-67" value="" style="edgeStyle=entityRelationEdgeStyle;fontSize=12;html=1;endArrow=ERzeroToMany;startArrow=ERzeroToMany;shadow=1;fontColor=#000000;strokeColor=#DDA15E;strokeWidth=2;fillColor=#BC6C25;startFill=1;endFill=1;sketch=1;" edge="1" parent="1" source="QTOvt28qvxfar2RnhYl3-52" target="QTOvt28qvxfar2RnhYl3-30">
          <mxGeometry width="100" height="100" relative="1" as="geometry">
            <mxPoint x="200" y="742" as="sourcePoint" />
            <mxPoint x="320" y="247" as="targetPoint" />
          </mxGeometry>
        </mxCell>
        <mxCell id="QTOvt28qvxfar2RnhYl3-68" value="" style="edgeStyle=entityRelationEdgeStyle;fontSize=12;html=1;endArrow=ERzeroToMany;startArrow=ERzeroToMany;fontColor=#000000;strokeColor=#DDA15E;fillColor=#BC6C25;strokeWidth=2;shadow=1;sketch=1;startFill=1;endFill=1;rounded=1;" edge="1" parent="1" source="2e49270ec7c68f3f-80" target="QTOvt28qvxfar2RnhYl3-59">
          <mxGeometry width="100" height="100" relative="1" as="geometry">
            <mxPoint x="200" y="453" as="sourcePoint" />
            <mxPoint x="320" y="221" as="targetPoint" />
          </mxGeometry>
        </mxCell>
        <mxCell id="QTOvt28qvxfar2RnhYl3-70" value="" style="edgeStyle=entityRelationEdgeStyle;fontSize=12;html=1;endArrow=ERzeroToMany;startArrow=ERzeroToMany;shadow=1;fontColor=#000000;strokeColor=#DDA15E;strokeWidth=2;fillColor=#BC6C25;startFill=1;endFill=1;sketch=1;" edge="1" parent="1" source="QTOvt28qvxfar2RnhYl3-3" target="QTOvt28qvxfar2RnhYl3-61">
          <mxGeometry width="100" height="100" relative="1" as="geometry">
            <mxPoint x="200" y="742" as="sourcePoint" />
            <mxPoint x="320" y="247" as="targetPoint" />
          </mxGeometry>
        </mxCell>
        <mxCell id="QTOvt28qvxfar2RnhYl3-71" value="UserInfo" style="swimlane;html=1;fontStyle=0;childLayout=stackLayout;horizontal=1;startSize=26;fillColor=#BC6C25;horizontalStack=0;resizeParent=1;resizeLast=0;collapsible=1;marginBottom=0;swimlaneFillColor=#ffffff;align=center;shadow=0;comic=0;labelBackgroundColor=none;strokeWidth=1;fontFamily=Verdana;fontSize=14;strokeColor=#DDA15E;fontColor=#FEFAE0;sketch=1;rounded=1;" vertex="1" parent="1">
          <mxGeometry x="730" y="410" width="160" height="352" as="geometry" />
        </mxCell>
        <mxCell id="QTOvt28qvxfar2RnhYl3-72" value="&lt;font color=&quot;#000000&quot;&gt;_id&lt;/font&gt;" style="shape=partialRectangle;top=0;left=0;right=0;bottom=1;html=1;align=left;verticalAlign=middle;fillColor=none;spacingLeft=34;spacingRight=4;whiteSpace=wrap;overflow=hidden;rotatable=0;points=[[0,0.5],[1,0.5]];portConstraint=eastwest;dropTarget=0;fontStyle=5;strokeColor=#DDA15E;fontColor=#FEFAE0;sketch=1;rounded=1;" vertex="1" parent="QTOvt28qvxfar2RnhYl3-71">
          <mxGeometry y="26" width="160" height="30" as="geometry" />
        </mxCell>
        <mxCell id="QTOvt28qvxfar2RnhYl3-73" value="&lt;font color=&quot;#000000&quot;&gt;&lt;b&gt;PK&lt;/b&gt;&lt;/font&gt;" style="shape=partialRectangle;top=0;left=0;bottom=0;html=1;fillColor=none;align=left;verticalAlign=middle;spacingLeft=4;spacingRight=4;whiteSpace=wrap;overflow=hidden;rotatable=0;points=[];portConstraint=eastwest;part=1;strokeColor=#DDA15E;fontColor=#FEFAE0;sketch=1;rounded=1;" vertex="1" connectable="0" parent="QTOvt28qvxfar2RnhYl3-72">
          <mxGeometry width="30" height="30" as="geometry" />
        </mxCell>
        <mxCell id="QTOvt28qvxfar2RnhYl3-74" value="&lt;font color=&quot;#000000&quot;&gt;&lt;b&gt;username&lt;/b&gt;&lt;/font&gt;" style="shape=partialRectangle;top=0;left=0;right=0;bottom=0;html=1;align=left;verticalAlign=top;fillColor=none;spacingLeft=34;spacingRight=4;whiteSpace=wrap;overflow=hidden;rotatable=0;points=[[0,0.5],[1,0.5]];portConstraint=eastwest;dropTarget=0;strokeColor=#DDA15E;fontColor=#FEFAE0;sketch=1;rounded=1;" vertex="1" parent="QTOvt28qvxfar2RnhYl3-71">
          <mxGeometry y="56" width="160" height="26" as="geometry" />
        </mxCell>
        <mxCell id="QTOvt28qvxfar2RnhYl3-75" value="" style="shape=partialRectangle;top=0;left=0;bottom=0;html=1;fillColor=none;align=left;verticalAlign=top;spacingLeft=4;spacingRight=4;whiteSpace=wrap;overflow=hidden;rotatable=0;points=[];portConstraint=eastwest;part=1;strokeColor=#DDA15E;fontColor=#FEFAE0;sketch=1;rounded=1;" vertex="1" connectable="0" parent="QTOvt28qvxfar2RnhYl3-74">
          <mxGeometry width="30" height="26" as="geometry" />
        </mxCell>
        <mxCell id="QTOvt28qvxfar2RnhYl3-76" value="&lt;font color=&quot;#000000&quot;&gt;&lt;b&gt;password&lt;/b&gt;&lt;/font&gt;" style="shape=partialRectangle;top=0;left=0;right=0;bottom=0;html=1;align=left;verticalAlign=top;fillColor=none;spacingLeft=34;spacingRight=4;whiteSpace=wrap;overflow=hidden;rotatable=0;points=[[0,0.5],[1,0.5]];portConstraint=eastwest;dropTarget=0;strokeColor=#DDA15E;fontColor=#FEFAE0;sketch=1;rounded=1;" vertex="1" parent="QTOvt28qvxfar2RnhYl3-71">
          <mxGeometry y="82" width="160" height="26" as="geometry" />
        </mxCell>
        <mxCell id="QTOvt28qvxfar2RnhYl3-77" value="" style="shape=partialRectangle;top=0;left=0;bottom=0;html=1;fillColor=none;align=left;verticalAlign=top;spacingLeft=4;spacingRight=4;whiteSpace=wrap;overflow=hidden;rotatable=0;points=[];portConstraint=eastwest;part=1;strokeColor=#DDA15E;fontColor=#FEFAE0;sketch=1;rounded=1;" vertex="1" connectable="0" parent="QTOvt28qvxfar2RnhYl3-76">
          <mxGeometry width="30" height="26" as="geometry" />
        </mxCell>
        <mxCell id="QTOvt28qvxfar2RnhYl3-78" value="&lt;font color=&quot;#000000&quot;&gt;create_time&lt;/font&gt;" style="shape=partialRectangle;top=0;left=0;right=0;bottom=0;html=1;align=left;verticalAlign=top;fillColor=none;spacingLeft=34;spacingRight=4;whiteSpace=wrap;overflow=hidden;rotatable=0;points=[[0,0.5],[1,0.5]];portConstraint=eastwest;dropTarget=0;strokeColor=#DDA15E;fontColor=#FEFAE0;sketch=1;rounded=1;" vertex="1" parent="QTOvt28qvxfar2RnhYl3-71">
          <mxGeometry y="108" width="160" height="26" as="geometry" />
        </mxCell>
        <mxCell id="QTOvt28qvxfar2RnhYl3-79" value="" style="shape=partialRectangle;top=0;left=0;bottom=0;html=1;fillColor=none;align=left;verticalAlign=top;spacingLeft=4;spacingRight=4;whiteSpace=wrap;overflow=hidden;rotatable=0;points=[];portConstraint=eastwest;part=1;strokeColor=#DDA15E;fontColor=#FEFAE0;sketch=1;rounded=1;" vertex="1" connectable="0" parent="QTOvt28qvxfar2RnhYl3-78">
          <mxGeometry width="30" height="26" as="geometry" />
        </mxCell>
        <mxCell id="QTOvt28qvxfar2RnhYl3-84" value="&lt;font color=&quot;#000000&quot;&gt;last_login&lt;/font&gt;" style="shape=partialRectangle;top=0;left=0;right=0;bottom=0;html=1;align=left;verticalAlign=top;fillColor=none;spacingLeft=34;spacingRight=4;whiteSpace=wrap;overflow=hidden;rotatable=0;points=[[0,0.5],[1,0.5]];portConstraint=eastwest;dropTarget=0;strokeColor=#DDA15E;fontColor=#FEFAE0;sketch=1;rounded=1;" vertex="1" parent="QTOvt28qvxfar2RnhYl3-71">
          <mxGeometry y="134" width="160" height="26" as="geometry" />
        </mxCell>
        <mxCell id="QTOvt28qvxfar2RnhYl3-85" value="" style="shape=partialRectangle;top=0;left=0;bottom=0;html=1;fillColor=none;align=left;verticalAlign=top;spacingLeft=4;spacingRight=4;whiteSpace=wrap;overflow=hidden;rotatable=0;points=[];portConstraint=eastwest;part=1;strokeColor=#DDA15E;fontColor=#FEFAE0;sketch=1;rounded=1;" vertex="1" connectable="0" parent="QTOvt28qvxfar2RnhYl3-84">
          <mxGeometry width="30" height="26" as="geometry" />
        </mxCell>
        <mxCell id="QTOvt28qvxfar2RnhYl3-80" value="&lt;font color=&quot;#000000&quot;&gt;is_active&lt;/font&gt;" style="shape=partialRectangle;top=0;left=0;right=0;bottom=0;html=1;align=left;verticalAlign=top;fillColor=none;spacingLeft=34;spacingRight=4;whiteSpace=wrap;overflow=hidden;rotatable=0;points=[[0,0.5],[1,0.5]];portConstraint=eastwest;dropTarget=0;strokeColor=#DDA15E;fontColor=#FEFAE0;sketch=1;rounded=1;" vertex="1" parent="QTOvt28qvxfar2RnhYl3-71">
          <mxGeometry y="160" width="160" height="26" as="geometry" />
        </mxCell>
        <mxCell id="QTOvt28qvxfar2RnhYl3-81" value="" style="shape=partialRectangle;top=0;left=0;bottom=0;html=1;fillColor=none;align=left;verticalAlign=top;spacingLeft=4;spacingRight=4;whiteSpace=wrap;overflow=hidden;rotatable=0;points=[];portConstraint=eastwest;part=1;strokeColor=#DDA15E;fontColor=#FEFAE0;sketch=1;rounded=1;" vertex="1" connectable="0" parent="QTOvt28qvxfar2RnhYl3-80">
          <mxGeometry width="30" height="26" as="geometry" />
        </mxCell>
        <mxCell id="QTOvt28qvxfar2RnhYl3-88" value="&lt;font color=&quot;#000000&quot;&gt;is_admin&lt;/font&gt;" style="shape=partialRectangle;top=0;left=0;right=0;bottom=0;html=1;align=left;verticalAlign=top;fillColor=none;spacingLeft=34;spacingRight=4;whiteSpace=wrap;overflow=hidden;rotatable=0;points=[[0,0.5],[1,0.5]];portConstraint=eastwest;dropTarget=0;strokeColor=#DDA15E;fontColor=#FEFAE0;sketch=1;rounded=1;" vertex="1" parent="QTOvt28qvxfar2RnhYl3-71">
          <mxGeometry y="186" width="160" height="26" as="geometry" />
        </mxCell>
        <mxCell id="QTOvt28qvxfar2RnhYl3-89" value="" style="shape=partialRectangle;top=0;left=0;bottom=0;html=1;fillColor=none;align=left;verticalAlign=top;spacingLeft=4;spacingRight=4;whiteSpace=wrap;overflow=hidden;rotatable=0;points=[];portConstraint=eastwest;part=1;strokeColor=#DDA15E;fontColor=#FEFAE0;sketch=1;rounded=1;" vertex="1" connectable="0" parent="QTOvt28qvxfar2RnhYl3-88">
          <mxGeometry width="30" height="26" as="geometry" />
        </mxCell>
        <mxCell id="QTOvt28qvxfar2RnhYl3-86" value="&lt;font color=&quot;#000000&quot;&gt;is_superuser&lt;/font&gt;&lt;span style=&quot;color: rgba(0 , 0 , 0 , 0) ; font-family: monospace ; font-size: 0px&quot;&gt;%3CmxGraphModel%3E%3Croot%3E%3CmxCell%20id%3D%220%22%2F%3E%3CmxCell%20id%3D%221%22%20parent%3D%220%22%2F%3E%3CmxCell%20id%3D%222%22%20value%3D%22%26lt%3Bfont%20color%3D%26quot%3B%23000000%26quot%3B%26gt%3Bis_admin%26lt%3B%2Ffont%26gt%3B%22%20style%3D%22shape%3DpartialRectangle%3Btop%3D0%3Bleft%3D0%3Bright%3D0%3Bbottom%3D0%3Bhtml%3D1%3Balign%3Dleft%3BverticalAlign%3Dtop%3BfillColor%3Dnone%3BspacingLeft%3D34%3BspacingRight%3D4%3BwhiteSpace%3Dwrap%3Boverflow%3Dhidden%3Brotatable%3D0%3Bpoints%3D%5B%5B0%2C0.5%5D%2C%5B1%2C0.5%5D%5D%3BportConstraint%3Deastwest%3BdropTarget%3D0%3BstrokeColor%3D%23DDA15E%3BfontColor%3D%23FEFAE0%3Bsketch%3D1%3Brounded%3D1%3B%22%20vertex%3D%221%22%20parent%3D%221%22%3E%3CmxGeometry%20x%3D%22730%22%20y%3D%22596%22%20width%3D%22160%22%20height%3D%2226%22%20as%3D%22geometry%22%2F%3E%3C%2FmxCell%3E%3CmxCell%20id%3D%223%22%20value%3D%22%22%20style%3D%22shape%3DpartialRectangle%3Btop%3D0%3Bleft%3D0%3Bbottom%3D0%3Bhtml%3D1%3BfillColor%3Dnone%3Balign%3Dleft%3BverticalAlign%3Dtop%3BspacingLeft%3D4%3BspacingRight%3D4%3BwhiteSpace%3Dwrap%3Boverflow%3Dhidden%3Brotatable%3D0%3Bpoints%3D%5B%5D%3BportConstraint%3Deastwest%3Bpart%3D1%3BstrokeColor%3D%23DDA15E%3BfontColor%3D%23FEFAE0%3Bsketch%3D1%3Brounded%3D1%3B%22%20vertex%3D%221%22%20connectable%3D%220%22%20parent%3D%222%22%3E%3CmxGeometry%20width%3D%2230%22%20height%3D%2226%22%20as%3D%22geometry%22%2F%3E%3C%2FmxCell%3E%3C%2Froot%3E%3C%2FmxGraphModel%3E&lt;/span&gt;&lt;span style=&quot;color: rgba(0 , 0 , 0 , 0) ; font-family: monospace ; font-size: 0px&quot;&gt;%3CmxGraphModel%3E%3Croot%3E%3CmxCell%20id%3D%220%22%2F%3E%3CmxCell%20id%3D%221%22%20parent%3D%220%22%2F%3E%3CmxCell%20id%3D%222%22%20value%3D%22%26lt%3Bfont%20color%3D%26quot%3B%23000000%26quot%3B%26gt%3Bis_admin%26lt%3B%2Ffont%26gt%3B%22%20style%3D%22shape%3DpartialRectangle%3Btop%3D0%3Bleft%3D0%3Bright%3D0%3Bbottom%3D0%3Bhtml%3D1%3Balign%3Dleft%3BverticalAlign%3Dtop%3BfillColor%3Dnone%3BspacingLeft%3D34%3BspacingRight%3D4%3BwhiteSpace%3Dwrap%3Boverflow%3Dhidden%3Brotatable%3D0%3Bpoints%3D%5B%5B0%2C0.5%5D%2C%5B1%2C0.5%5D%5D%3BportConstraint%3Deastwest%3BdropTarget%3D0%3BstrokeColor%3D%23DDA15E%3BfontColor%3D%23FEFAE0%3Bsketch%3D1%3Brounded%3D1%3B%22%20vertex%3D%221%22%20parent%3D%221%22%3E%3CmxGeometry%20x%3D%22730%22%20y%3D%22596%22%20width%3D%22160%22%20height%3D%2226%22%20as%3D%22geometry%22%2F%3E%3C%2FmxCell%3E%3CmxCell%20id%3D%223%22%20value%3D%22%22%20style%3D%22shape%3DpartialRectangle%3Btop%3D0%3Bleft%3D0%3Bbottom%3D0%3Bhtml%3D1%3BfillColor%3Dnone%3Balign%3Dleft%3BverticalAlign%3Dtop%3BspacingLeft%3D4%3BspacingRight%3D4%3BwhiteSpace%3Dwrap%3Boverflow%3Dhidden%3Brotatable%3D0%3Bpoints%3D%5B%5D%3BportConstraint%3Deastwest%3Bpart%3D1%3BstrokeColor%3D%23DDA15E%3BfontColor%3D%23FEFAE0%3Bsketch%3D1%3Brounded%3D1%3B%22%20vertex%3D%221%22%20connectable%3D%220%22%20parent%3D%222%22%3E%3CmxGeometry%20width%3D%2230%22%20height%3D%2226%22%20as%3D%22geometry%22%2F%3E%3C%2FmxCell%3E%3C%2Froot%3E%3C%2FmxGraphModel%3E&lt;/span&gt;" style="shape=partialRectangle;top=0;left=0;right=0;bottom=0;html=1;align=left;verticalAlign=top;fillColor=none;spacingLeft=34;spacingRight=4;whiteSpace=wrap;overflow=hidden;rotatable=0;points=[[0,0.5],[1,0.5]];portConstraint=eastwest;dropTarget=0;strokeColor=#DDA15E;fontColor=#FEFAE0;sketch=1;rounded=1;" vertex="1" parent="QTOvt28qvxfar2RnhYl3-71">
          <mxGeometry y="212" width="160" height="26" as="geometry" />
        </mxCell>
        <mxCell id="QTOvt28qvxfar2RnhYl3-87" value="" style="shape=partialRectangle;top=0;left=0;bottom=0;html=1;fillColor=none;align=left;verticalAlign=top;spacingLeft=4;spacingRight=4;whiteSpace=wrap;overflow=hidden;rotatable=0;points=[];portConstraint=eastwest;part=1;strokeColor=#DDA15E;fontColor=#FEFAE0;sketch=1;rounded=1;" vertex="1" connectable="0" parent="QTOvt28qvxfar2RnhYl3-86">
          <mxGeometry width="30" height="26" as="geometry" />
        </mxCell>
        <mxCell id="QTOvt28qvxfar2RnhYl3-90" value="&lt;font color=&quot;#000000&quot;&gt;groups&lt;/font&gt;" style="shape=partialRectangle;top=0;left=0;right=0;bottom=0;html=1;align=left;verticalAlign=top;fillColor=none;spacingLeft=34;spacingRight=4;whiteSpace=wrap;overflow=hidden;rotatable=0;points=[[0,0.5],[1,0.5]];portConstraint=eastwest;dropTarget=0;strokeColor=#DDA15E;fontColor=#FEFAE0;sketch=1;rounded=1;" vertex="1" parent="QTOvt28qvxfar2RnhYl3-71">
          <mxGeometry y="238" width="160" height="26" as="geometry" />
        </mxCell>
        <mxCell id="QTOvt28qvxfar2RnhYl3-91" value="" style="shape=partialRectangle;top=0;left=0;bottom=0;html=1;fillColor=none;align=left;verticalAlign=top;spacingLeft=4;spacingRight=4;whiteSpace=wrap;overflow=hidden;rotatable=0;points=[];portConstraint=eastwest;part=1;strokeColor=#DDA15E;fontColor=#FEFAE0;sketch=1;rounded=1;" vertex="1" connectable="0" parent="QTOvt28qvxfar2RnhYl3-90">
          <mxGeometry width="30" height="26" as="geometry" />
        </mxCell>
        <mxCell id="QTOvt28qvxfar2RnhYl3-92" value="&lt;font color=&quot;#000000&quot;&gt;roles&lt;/font&gt;" style="shape=partialRectangle;top=0;left=0;right=0;bottom=0;html=1;align=left;verticalAlign=top;fillColor=none;spacingLeft=34;spacingRight=4;whiteSpace=wrap;overflow=hidden;rotatable=0;points=[[0,0.5],[1,0.5]];portConstraint=eastwest;dropTarget=0;strokeColor=#DDA15E;fontColor=#FEFAE0;sketch=1;rounded=1;" vertex="1" parent="QTOvt28qvxfar2RnhYl3-71">
          <mxGeometry y="264" width="160" height="26" as="geometry" />
        </mxCell>
        <mxCell id="QTOvt28qvxfar2RnhYl3-93" value="" style="shape=partialRectangle;top=0;left=0;bottom=0;html=1;fillColor=none;align=left;verticalAlign=top;spacingLeft=4;spacingRight=4;whiteSpace=wrap;overflow=hidden;rotatable=0;points=[];portConstraint=eastwest;part=1;strokeColor=#DDA15E;fontColor=#FEFAE0;sketch=1;rounded=1;" vertex="1" connectable="0" parent="QTOvt28qvxfar2RnhYl3-92">
          <mxGeometry width="30" height="26" as="geometry" />
        </mxCell>
        <mxCell id="QTOvt28qvxfar2RnhYl3-94" value="&lt;font color=&quot;#000000&quot;&gt;url_permissions&lt;/font&gt;" style="shape=partialRectangle;top=0;left=0;right=0;bottom=0;html=1;align=left;verticalAlign=top;fillColor=none;spacingLeft=34;spacingRight=4;whiteSpace=wrap;overflow=hidden;rotatable=0;points=[[0,0.5],[1,0.5]];portConstraint=eastwest;dropTarget=0;strokeColor=#DDA15E;fontColor=#FEFAE0;sketch=1;rounded=1;" vertex="1" parent="QTOvt28qvxfar2RnhYl3-71">
          <mxGeometry y="290" width="160" height="26" as="geometry" />
        </mxCell>
        <mxCell id="QTOvt28qvxfar2RnhYl3-95" value="" style="shape=partialRectangle;top=0;left=0;bottom=0;html=1;fillColor=none;align=left;verticalAlign=top;spacingLeft=4;spacingRight=4;whiteSpace=wrap;overflow=hidden;rotatable=0;points=[];portConstraint=eastwest;part=1;strokeColor=#DDA15E;fontColor=#FEFAE0;sketch=1;rounded=1;" vertex="1" connectable="0" parent="QTOvt28qvxfar2RnhYl3-94">
          <mxGeometry width="30" height="26" as="geometry" />
        </mxCell>
        <mxCell id="QTOvt28qvxfar2RnhYl3-96" value="&lt;font color=&quot;#000000&quot;&gt;obj_permissions&lt;/font&gt;" style="shape=partialRectangle;top=0;left=0;right=0;bottom=0;html=1;align=left;verticalAlign=top;fillColor=none;spacingLeft=34;spacingRight=4;whiteSpace=wrap;overflow=hidden;rotatable=0;points=[[0,0.5],[1,0.5]];portConstraint=eastwest;dropTarget=0;strokeColor=#DDA15E;fontColor=#FEFAE0;sketch=1;rounded=1;" vertex="1" parent="QTOvt28qvxfar2RnhYl3-71">
          <mxGeometry y="316" width="160" height="26" as="geometry" />
        </mxCell>
        <mxCell id="QTOvt28qvxfar2RnhYl3-97" value="" style="shape=partialRectangle;top=0;left=0;bottom=0;html=1;fillColor=none;align=left;verticalAlign=top;spacingLeft=4;spacingRight=4;whiteSpace=wrap;overflow=hidden;rotatable=0;points=[];portConstraint=eastwest;part=1;strokeColor=#DDA15E;fontColor=#FEFAE0;sketch=1;rounded=1;" vertex="1" connectable="0" parent="QTOvt28qvxfar2RnhYl3-96">
          <mxGeometry width="30" height="26" as="geometry" />
        </mxCell>
        <mxCell id="QTOvt28qvxfar2RnhYl3-82" value="" style="shape=partialRectangle;top=0;left=0;right=0;bottom=0;html=1;align=left;verticalAlign=top;fillColor=none;spacingLeft=34;spacingRight=4;whiteSpace=wrap;overflow=hidden;rotatable=0;points=[[0,0.5],[1,0.5]];portConstraint=eastwest;dropTarget=0;strokeColor=#DDA15E;fontColor=#FEFAE0;sketch=1;rounded=1;" vertex="1" parent="QTOvt28qvxfar2RnhYl3-71">
          <mxGeometry y="342" width="160" height="10" as="geometry" />
        </mxCell>
        <mxCell id="QTOvt28qvxfar2RnhYl3-83" value="" style="shape=partialRectangle;top=0;left=0;bottom=0;html=1;fillColor=none;align=left;verticalAlign=top;spacingLeft=4;spacingRight=4;whiteSpace=wrap;overflow=hidden;rotatable=0;points=[];portConstraint=eastwest;part=1;strokeColor=#DDA15E;fontColor=#FEFAE0;sketch=1;rounded=1;" vertex="1" connectable="0" parent="QTOvt28qvxfar2RnhYl3-82">
          <mxGeometry width="30" height="10" as="geometry" />
        </mxCell>
        <mxCell id="QTOvt28qvxfar2RnhYl3-98" value="" style="edgeStyle=entityRelationEdgeStyle;fontSize=12;html=1;endArrow=ERzeroToMany;startArrow=ERzeroToMany;shadow=1;fontColor=#000000;strokeColor=#DDA15E;strokeWidth=2;fillColor=#BC6C25;sketch=1;startFill=1;endFill=1;" edge="1" parent="1" source="2e49270ec7c68f3f-80" target="QTOvt28qvxfar2RnhYl3-94">
          <mxGeometry width="100" height="100" relative="1" as="geometry">
            <mxPoint x="400" y="620" as="sourcePoint" />
            <mxPoint x="500" y="520" as="targetPoint" />
          </mxGeometry>
        </mxCell>
        <mxCell id="QTOvt28qvxfar2RnhYl3-99" value="" style="edgeStyle=entityRelationEdgeStyle;fontSize=12;html=1;endArrow=ERzeroToMany;startArrow=ERzeroToMany;shadow=1;fontColor=#000000;strokeColor=#DDA15E;strokeWidth=2;fillColor=#BC6C25;sketch=1;startFill=1;endFill=1;" edge="1" parent="1" source="QTOvt28qvxfar2RnhYl3-3" target="QTOvt28qvxfar2RnhYl3-96">
          <mxGeometry width="100" height="100" relative="1" as="geometry">
            <mxPoint x="200" y="453" as="sourcePoint" />
            <mxPoint x="740" y="723" as="targetPoint" />
          </mxGeometry>
        </mxCell>
        <mxCell id="QTOvt28qvxfar2RnhYl3-100" value="" style="edgeStyle=entityRelationEdgeStyle;fontSize=12;html=1;endArrow=ERzeroToMany;startArrow=ERzeroToMany;shadow=1;fontColor=#000000;strokeColor=#DDA15E;strokeWidth=2;fillColor=#BC6C25;sketch=1;startFill=1;endFill=1;" edge="1" parent="1" source="QTOvt28qvxfar2RnhYl3-30" target="QTOvt28qvxfar2RnhYl3-92">
          <mxGeometry width="100" height="100" relative="1" as="geometry">
            <mxPoint x="620" y="370" as="sourcePoint" />
            <mxPoint x="750" y="733" as="targetPoint" />
          </mxGeometry>
        </mxCell>
        <mxCell id="QTOvt28qvxfar2RnhYl3-101" value="" style="edgeStyle=entityRelationEdgeStyle;fontSize=12;html=1;endArrow=ERzeroToMany;startArrow=ERzeroToMany;shadow=1;fontColor=#000000;strokeColor=#DDA15E;strokeWidth=2;fillColor=#BC6C25;sketch=1;startFill=1;endFill=1;" edge="1" parent="1" source="QTOvt28qvxfar2RnhYl3-52" target="QTOvt28qvxfar2RnhYl3-90">
          <mxGeometry width="100" height="100" relative="1" as="geometry">
            <mxPoint x="220" y="473" as="sourcePoint" />
            <mxPoint x="760" y="743" as="targetPoint" />
          </mxGeometry>
        </mxCell>
      </root>
    </mxGraphModel>
  </diagram>
</mxfile>
